<mxfile host="app.diagrams.net" modified="2023-05-05T13:23:19.020Z" agent="5.0 (Windows NT 10.0; Win64; x64) AppleWebKit/537.36 (KHTML, like Gecko) Chrome/112.0.0.0 Safari/537.36" etag="k8G65zG-SeDb9iLHGjCE" version="21.0.6" type="github">
  <diagram id="C5RBs43oDa-KdzZeNtuy" name="Page-1">
    <mxGraphModel dx="1877" dy="573" grid="1" gridSize="10" guides="1" tooltips="1" connect="1" arrows="1" fold="1" page="1" pageScale="1" pageWidth="827" pageHeight="1169" math="0" shadow="0">
      <root>
        <mxCell id="WIyWlLk6GJQsqaUBKTNV-0" />
        <mxCell id="WIyWlLk6GJQsqaUBKTNV-1" parent="WIyWlLk6GJQsqaUBKTNV-0" />
        <mxCell id="OUhb2QEN75pIKxEQ_v2V-1" value="Rescue service" style="shape=umlActor;verticalLabelPosition=bottom;verticalAlign=top;html=1;fillColor=#7EA6E0;" vertex="1" parent="WIyWlLk6GJQsqaUBKTNV-1">
          <mxGeometry x="560" y="310" width="30" height="60" as="geometry" />
        </mxCell>
        <mxCell id="OUhb2QEN75pIKxEQ_v2V-21" value="" style="rounded=0;orthogonalLoop=1;jettySize=auto;html=1;entryX=0;entryY=1;entryDx=0;entryDy=0;" edge="1" parent="WIyWlLk6GJQsqaUBKTNV-1" target="OUhb2QEN75pIKxEQ_v2V-5">
          <mxGeometry relative="1" as="geometry">
            <mxPoint x="240" y="330" as="sourcePoint" />
          </mxGeometry>
        </mxCell>
        <mxCell id="OUhb2QEN75pIKxEQ_v2V-2" value="Emergency User" style="shape=umlActor;verticalLabelPosition=bottom;verticalAlign=top;html=1;fillColor=#7EA6E0;" vertex="1" parent="WIyWlLk6GJQsqaUBKTNV-1">
          <mxGeometry x="209" y="310" width="30" height="60" as="geometry" />
        </mxCell>
        <mxCell id="OUhb2QEN75pIKxEQ_v2V-14" value="" style="rounded=0;orthogonalLoop=1;jettySize=auto;html=1;exitX=0;exitY=0.3333333333333333;exitDx=0;exitDy=0;exitPerimeter=0;" edge="1" parent="WIyWlLk6GJQsqaUBKTNV-1" source="OUhb2QEN75pIKxEQ_v2V-1" target="OUhb2QEN75pIKxEQ_v2V-5">
          <mxGeometry relative="1" as="geometry" />
        </mxCell>
        <mxCell id="OUhb2QEN75pIKxEQ_v2V-5" value="Sign In" style="ellipse;whiteSpace=wrap;html=1;fillColor=#fff2cc;strokeColor=#d6b656;" vertex="1" parent="WIyWlLk6GJQsqaUBKTNV-1">
          <mxGeometry x="310" y="180" width="140" height="70" as="geometry" />
        </mxCell>
        <mxCell id="OUhb2QEN75pIKxEQ_v2V-6" value="MAP" style="ellipse;whiteSpace=wrap;html=1;fillColor=#fff2cc;strokeColor=#d6b656;" vertex="1" parent="WIyWlLk6GJQsqaUBKTNV-1">
          <mxGeometry x="310" y="310" width="140" height="70" as="geometry" />
        </mxCell>
        <mxCell id="OUhb2QEN75pIKxEQ_v2V-17" value="" style="rounded=0;orthogonalLoop=1;jettySize=auto;html=1;exitX=0.66;exitY=0.69;exitDx=0;exitDy=0;exitPerimeter=0;" edge="1" parent="WIyWlLk6GJQsqaUBKTNV-1" source="OUhb2QEN75pIKxEQ_v2V-16" target="OUhb2QEN75pIKxEQ_v2V-7">
          <mxGeometry relative="1" as="geometry" />
        </mxCell>
        <mxCell id="OUhb2QEN75pIKxEQ_v2V-7" value="Send a distress signal" style="ellipse;whiteSpace=wrap;html=1;fillColor=#fff2cc;strokeColor=#d6b656;" vertex="1" parent="WIyWlLk6GJQsqaUBKTNV-1">
          <mxGeometry x="60" y="160" width="140" height="70" as="geometry" />
        </mxCell>
        <mxCell id="OUhb2QEN75pIKxEQ_v2V-11" value="" style="rounded=0;orthogonalLoop=1;jettySize=auto;html=1;endArrow=classic;endFill=1;endSize=6;exitX=1;exitY=0.3333333333333333;exitDx=0;exitDy=0;exitPerimeter=0;" edge="1" parent="WIyWlLk6GJQsqaUBKTNV-1" source="OUhb2QEN75pIKxEQ_v2V-1" target="OUhb2QEN75pIKxEQ_v2V-8">
          <mxGeometry relative="1" as="geometry" />
        </mxCell>
        <mxCell id="OUhb2QEN75pIKxEQ_v2V-8" value="Receive distress signal" style="ellipse;whiteSpace=wrap;html=1;fillColor=#fff2cc;strokeColor=#d6b656;" vertex="1" parent="WIyWlLk6GJQsqaUBKTNV-1">
          <mxGeometry x="590" y="140" width="140" height="70" as="geometry" />
        </mxCell>
        <mxCell id="OUhb2QEN75pIKxEQ_v2V-15" value="" style="rounded=0;orthogonalLoop=1;jettySize=auto;html=1;exitX=0;exitY=0.3333333333333333;exitDx=0;exitDy=0;exitPerimeter=0;" edge="1" parent="WIyWlLk6GJQsqaUBKTNV-1" source="OUhb2QEN75pIKxEQ_v2V-1" target="OUhb2QEN75pIKxEQ_v2V-6">
          <mxGeometry relative="1" as="geometry" />
        </mxCell>
        <mxCell id="OUhb2QEN75pIKxEQ_v2V-10" value="" style="shape=waypoint;sketch=0;size=6;pointerEvents=1;points=[];fillColor=#fff2cc;resizable=0;rotatable=0;perimeter=centerPerimeter;snapToPoint=1;strokeColor=#d6b656;" vertex="1" parent="WIyWlLk6GJQsqaUBKTNV-1">
          <mxGeometry x="580" y="360" width="20" height="20" as="geometry" />
        </mxCell>
        <mxCell id="OUhb2QEN75pIKxEQ_v2V-13" value="" style="shape=waypoint;sketch=0;size=6;pointerEvents=1;points=[];fillColor=#fff2cc;resizable=0;rotatable=0;perimeter=centerPerimeter;snapToPoint=1;strokeColor=#d6b656;" vertex="1" parent="WIyWlLk6GJQsqaUBKTNV-1">
          <mxGeometry x="590" y="235" width="20" height="20" as="geometry" />
        </mxCell>
        <mxCell id="OUhb2QEN75pIKxEQ_v2V-19" value="" style="rounded=0;orthogonalLoop=1;jettySize=auto;html=1;exitX=1;exitY=0.3333333333333333;exitDx=0;exitDy=0;exitPerimeter=0;" edge="1" parent="WIyWlLk6GJQsqaUBKTNV-1" source="OUhb2QEN75pIKxEQ_v2V-2" target="OUhb2QEN75pIKxEQ_v2V-6">
          <mxGeometry relative="1" as="geometry" />
        </mxCell>
        <mxCell id="OUhb2QEN75pIKxEQ_v2V-16" value="" style="shape=waypoint;sketch=0;size=6;pointerEvents=1;points=[];fillColor=#fff2cc;resizable=0;rotatable=0;perimeter=centerPerimeter;snapToPoint=1;strokeColor=#d6b656;" vertex="1" parent="WIyWlLk6GJQsqaUBKTNV-1">
          <mxGeometry x="200" y="320" width="20" height="20" as="geometry" />
        </mxCell>
        <mxCell id="OUhb2QEN75pIKxEQ_v2V-25" value="" style="rounded=0;orthogonalLoop=1;jettySize=auto;html=1;exitX=0.34;exitY=0.85;exitDx=0;exitDy=0;exitPerimeter=0;" edge="1" parent="WIyWlLk6GJQsqaUBKTNV-1" source="OUhb2QEN75pIKxEQ_v2V-16" target="OUhb2QEN75pIKxEQ_v2V-23">
          <mxGeometry relative="1" as="geometry" />
        </mxCell>
        <mxCell id="OUhb2QEN75pIKxEQ_v2V-23" value="Rescue service rating" style="ellipse;whiteSpace=wrap;html=1;fillColor=#fff2cc;strokeColor=#d6b656;" vertex="1" parent="WIyWlLk6GJQsqaUBKTNV-1">
          <mxGeometry x="20" y="400" width="140" height="70" as="geometry" />
        </mxCell>
        <mxCell id="OUhb2QEN75pIKxEQ_v2V-28" value="&amp;lt;&amp;lt;extends&amp;gt;&amp;gt;" style="edgeStyle=orthogonalEdgeStyle;rounded=0;orthogonalLoop=1;jettySize=auto;html=1;endArrow=open;endFill=0;endSize=16;dashed=1;" edge="1" parent="WIyWlLk6GJQsqaUBKTNV-1" source="OUhb2QEN75pIKxEQ_v2V-27" target="OUhb2QEN75pIKxEQ_v2V-26">
          <mxGeometry relative="1" as="geometry" />
        </mxCell>
        <mxCell id="OUhb2QEN75pIKxEQ_v2V-32" value="&amp;lt;&amp;lt;extends&amp;gt;&amp;gt;" style="rounded=0;orthogonalLoop=1;jettySize=auto;html=1;dashed=1;endSize=16;endArrow=open;endFill=0;" edge="1" parent="WIyWlLk6GJQsqaUBKTNV-1" source="OUhb2QEN75pIKxEQ_v2V-31" target="OUhb2QEN75pIKxEQ_v2V-26">
          <mxGeometry relative="1" as="geometry" />
        </mxCell>
        <mxCell id="OUhb2QEN75pIKxEQ_v2V-35" value="&amp;lt;&amp;lt;extends&amp;gt;&amp;gt;" style="rounded=0;orthogonalLoop=1;jettySize=auto;html=1;dashed=1;endSize=16;endArrow=open;endFill=0;" edge="1" parent="WIyWlLk6GJQsqaUBKTNV-1" source="OUhb2QEN75pIKxEQ_v2V-34" target="OUhb2QEN75pIKxEQ_v2V-26">
          <mxGeometry relative="1" as="geometry" />
        </mxCell>
        <mxCell id="OUhb2QEN75pIKxEQ_v2V-26" value="Sign In" style="ellipse;whiteSpace=wrap;html=1;fillColor=#fff2cc;strokeColor=#d6b656;" vertex="1" parent="WIyWlLk6GJQsqaUBKTNV-1">
          <mxGeometry x="180" y="710" width="140" height="70" as="geometry" />
        </mxCell>
        <mxCell id="OUhb2QEN75pIKxEQ_v2V-27" value="Phone Number" style="ellipse;whiteSpace=wrap;html=1;fillColor=#fff2cc;strokeColor=#d6b656;" vertex="1" parent="WIyWlLk6GJQsqaUBKTNV-1">
          <mxGeometry x="450" y="710" width="140" height="70" as="geometry" />
        </mxCell>
        <mxCell id="OUhb2QEN75pIKxEQ_v2V-29" value="Facebook" style="ellipse;whiteSpace=wrap;html=1;fillColor=#fff2cc;strokeColor=#d6b656;" vertex="1" parent="WIyWlLk6GJQsqaUBKTNV-1">
          <mxGeometry x="330" y="560" width="140" height="70" as="geometry" />
        </mxCell>
        <mxCell id="OUhb2QEN75pIKxEQ_v2V-31" value="Google" style="ellipse;whiteSpace=wrap;html=1;fillColor=#fff2cc;strokeColor=#d6b656;" vertex="1" parent="WIyWlLk6GJQsqaUBKTNV-1">
          <mxGeometry x="400" y="860" width="140" height="70" as="geometry" />
        </mxCell>
        <mxCell id="OUhb2QEN75pIKxEQ_v2V-33" value="&amp;lt;&amp;lt;extends&amp;gt;&amp;gt;" style="rounded=0;orthogonalLoop=1;jettySize=auto;html=1;dashed=1;endSize=16;endArrow=open;endFill=0;exitX=0.5;exitY=1;exitDx=0;exitDy=0;" edge="1" parent="WIyWlLk6GJQsqaUBKTNV-1" source="OUhb2QEN75pIKxEQ_v2V-29">
          <mxGeometry relative="1" as="geometry">
            <mxPoint x="260" y="790" as="sourcePoint" />
            <mxPoint x="250" y="710" as="targetPoint" />
          </mxGeometry>
        </mxCell>
        <mxCell id="OUhb2QEN75pIKxEQ_v2V-34" value="Sign up Info" style="ellipse;whiteSpace=wrap;html=1;fillColor=#fff2cc;strokeColor=#d6b656;" vertex="1" parent="WIyWlLk6GJQsqaUBKTNV-1">
          <mxGeometry x="-90" y="660" width="140" height="70" as="geometry" />
        </mxCell>
        <mxCell id="OUhb2QEN75pIKxEQ_v2V-44" value="&amp;lt;&amp;lt;extends&amp;gt;&amp;gt;" style="rounded=0;orthogonalLoop=1;jettySize=auto;html=1;dashed=1;endArrow=open;endFill=0;endSize=16;" edge="1" parent="WIyWlLk6GJQsqaUBKTNV-1" source="OUhb2QEN75pIKxEQ_v2V-43" target="OUhb2QEN75pIKxEQ_v2V-42">
          <mxGeometry relative="1" as="geometry" />
        </mxCell>
        <mxCell id="OUhb2QEN75pIKxEQ_v2V-46" value="&amp;lt;&amp;lt;extends&amp;gt;&amp;gt;" style="rounded=0;orthogonalLoop=1;jettySize=auto;html=1;dashed=1;endArrow=open;endFill=0;endSize=16;" edge="1" parent="WIyWlLk6GJQsqaUBKTNV-1" source="OUhb2QEN75pIKxEQ_v2V-45" target="OUhb2QEN75pIKxEQ_v2V-42">
          <mxGeometry relative="1" as="geometry" />
        </mxCell>
        <mxCell id="OUhb2QEN75pIKxEQ_v2V-42" value="MAP" style="ellipse;whiteSpace=wrap;html=1;fillColor=#fff2cc;strokeColor=#d6b656;" vertex="1" parent="WIyWlLk6GJQsqaUBKTNV-1">
          <mxGeometry x="-380" y="1170" width="140" height="70" as="geometry" />
        </mxCell>
        <mxCell id="OUhb2QEN75pIKxEQ_v2V-43" value="Show current location" style="ellipse;whiteSpace=wrap;html=1;fillColor=#fff2cc;strokeColor=#d6b656;" vertex="1" parent="WIyWlLk6GJQsqaUBKTNV-1">
          <mxGeometry x="-220" y="1010" width="140" height="70" as="geometry" />
        </mxCell>
        <mxCell id="OUhb2QEN75pIKxEQ_v2V-45" value="Place Directions&amp;nbsp;" style="ellipse;whiteSpace=wrap;html=1;fillColor=#fff2cc;strokeColor=#d6b656;" vertex="1" parent="WIyWlLk6GJQsqaUBKTNV-1">
          <mxGeometry x="-130" y="1170" width="140" height="70" as="geometry" />
        </mxCell>
        <mxCell id="OUhb2QEN75pIKxEQ_v2V-51" value="" style="rounded=0;orthogonalLoop=1;jettySize=auto;html=1;exitX=0;exitY=0.3333333333333333;exitDx=0;exitDy=0;exitPerimeter=0;entryX=1;entryY=0;entryDx=0;entryDy=0;" edge="1" parent="WIyWlLk6GJQsqaUBKTNV-1" source="OUhb2QEN75pIKxEQ_v2V-1" target="OUhb2QEN75pIKxEQ_v2V-49">
          <mxGeometry relative="1" as="geometry">
            <mxPoint x="560" y="330" as="sourcePoint" />
          </mxGeometry>
        </mxCell>
        <mxCell id="OUhb2QEN75pIKxEQ_v2V-54" value="" style="rounded=0;orthogonalLoop=1;jettySize=auto;html=1;exitX=1;exitY=0.3333333333333333;exitDx=0;exitDy=0;exitPerimeter=0;entryX=0;entryY=0;entryDx=0;entryDy=0;" edge="1" parent="WIyWlLk6GJQsqaUBKTNV-1" source="OUhb2QEN75pIKxEQ_v2V-2" target="OUhb2QEN75pIKxEQ_v2V-49">
          <mxGeometry relative="1" as="geometry" />
        </mxCell>
        <mxCell id="OUhb2QEN75pIKxEQ_v2V-49" value="Personal information management" style="ellipse;whiteSpace=wrap;html=1;fillColor=#fff2cc;strokeColor=#d6b656;" vertex="1" parent="WIyWlLk6GJQsqaUBKTNV-1">
          <mxGeometry x="300" y="430" width="140" height="70" as="geometry" />
        </mxCell>
        <mxCell id="OUhb2QEN75pIKxEQ_v2V-50" value="" style="shape=waypoint;sketch=0;size=6;pointerEvents=1;points=[];fillColor=#fff2cc;resizable=0;rotatable=0;perimeter=centerPerimeter;snapToPoint=1;strokeColor=#d6b656;" vertex="1" parent="WIyWlLk6GJQsqaUBKTNV-1">
          <mxGeometry x="590" y="495" width="20" height="20" as="geometry" />
        </mxCell>
        <mxCell id="OUhb2QEN75pIKxEQ_v2V-58" value="&amp;lt;&amp;lt;extends&amp;gt;&amp;gt;" style="rounded=0;orthogonalLoop=1;jettySize=auto;html=1;dashed=1;endSize=16;endArrow=open;endFill=0;" edge="1" parent="WIyWlLk6GJQsqaUBKTNV-1" source="OUhb2QEN75pIKxEQ_v2V-57" target="OUhb2QEN75pIKxEQ_v2V-56">
          <mxGeometry relative="1" as="geometry" />
        </mxCell>
        <mxCell id="OUhb2QEN75pIKxEQ_v2V-60" value="&amp;lt;&amp;lt;extends&amp;gt;&amp;gt;" style="rounded=0;orthogonalLoop=1;jettySize=auto;html=1;dashed=1;endSize=16;endArrow=open;endFill=0;" edge="1" parent="WIyWlLk6GJQsqaUBKTNV-1" source="OUhb2QEN75pIKxEQ_v2V-59" target="OUhb2QEN75pIKxEQ_v2V-56">
          <mxGeometry relative="1" as="geometry" />
        </mxCell>
        <mxCell id="OUhb2QEN75pIKxEQ_v2V-56" value="Rescue service rating" style="ellipse;whiteSpace=wrap;html=1;fillColor=#fff2cc;strokeColor=#d6b656;" vertex="1" parent="WIyWlLk6GJQsqaUBKTNV-1">
          <mxGeometry x="-50" y="1560" width="140" height="70" as="geometry" />
        </mxCell>
        <mxCell id="OUhb2QEN75pIKxEQ_v2V-57" value="Service fee" style="ellipse;whiteSpace=wrap;html=1;fillColor=#fff2cc;strokeColor=#d6b656;" vertex="1" parent="WIyWlLk6GJQsqaUBKTNV-1">
          <mxGeometry x="220" y="1490" width="140" height="70" as="geometry" />
        </mxCell>
        <mxCell id="OUhb2QEN75pIKxEQ_v2V-59" value="Satisfaction level" style="ellipse;whiteSpace=wrap;html=1;fillColor=#fff2cc;strokeColor=#d6b656;" vertex="1" parent="WIyWlLk6GJQsqaUBKTNV-1">
          <mxGeometry x="40" y="1380" width="140" height="70" as="geometry" />
        </mxCell>
        <mxCell id="OUhb2QEN75pIKxEQ_v2V-63" value="&amp;lt;&amp;lt;include&amp;gt;&amp;gt;" style="rounded=0;orthogonalLoop=1;jettySize=auto;html=1;dashed=1;endArrow=open;endFill=0;endSize=16;" edge="1" parent="WIyWlLk6GJQsqaUBKTNV-1" source="OUhb2QEN75pIKxEQ_v2V-62" target="OUhb2QEN75pIKxEQ_v2V-61">
          <mxGeometry relative="1" as="geometry" />
        </mxCell>
        <mxCell id="OUhb2QEN75pIKxEQ_v2V-61" value="Sign up Info" style="ellipse;whiteSpace=wrap;html=1;fillColor=#fff2cc;strokeColor=#d6b656;" vertex="1" parent="WIyWlLk6GJQsqaUBKTNV-1">
          <mxGeometry x="670" y="1180" width="140" height="70" as="geometry" />
        </mxCell>
        <mxCell id="OUhb2QEN75pIKxEQ_v2V-62" value="Sign up for basic information" style="ellipse;whiteSpace=wrap;html=1;fillColor=#fff2cc;strokeColor=#d6b656;" vertex="1" parent="WIyWlLk6GJQsqaUBKTNV-1">
          <mxGeometry x="690" y="1000" width="140" height="70" as="geometry" />
        </mxCell>
        <mxCell id="OUhb2QEN75pIKxEQ_v2V-66" value="&amp;lt;&amp;lt;extends&amp;gt;&amp;gt;" style="rounded=0;orthogonalLoop=1;jettySize=auto;html=1;dashed=1;endArrow=open;endFill=0;endSize=16;entryX=1;entryY=0;entryDx=0;entryDy=0;" edge="1" parent="WIyWlLk6GJQsqaUBKTNV-1" source="OUhb2QEN75pIKxEQ_v2V-67" target="OUhb2QEN75pIKxEQ_v2V-61">
          <mxGeometry relative="1" as="geometry">
            <mxPoint x="800" y="1160" as="targetPoint" />
          </mxGeometry>
        </mxCell>
        <mxCell id="OUhb2QEN75pIKxEQ_v2V-67" value="Sign up Rescue" style="ellipse;whiteSpace=wrap;html=1;fillColor=#fff2cc;strokeColor=#d6b656;" vertex="1" parent="WIyWlLk6GJQsqaUBKTNV-1">
          <mxGeometry x="870" y="1024" width="140" height="70" as="geometry" />
        </mxCell>
        <mxCell id="OUhb2QEN75pIKxEQ_v2V-70" value="&amp;lt;&amp;lt;extends&amp;gt;&amp;gt;" style="rounded=0;orthogonalLoop=1;jettySize=auto;html=1;dashed=1;endSize=16;endArrow=open;endFill=0;" edge="1" parent="WIyWlLk6GJQsqaUBKTNV-1" source="OUhb2QEN75pIKxEQ_v2V-69" target="OUhb2QEN75pIKxEQ_v2V-68">
          <mxGeometry relative="1" as="geometry" />
        </mxCell>
        <mxCell id="OUhb2QEN75pIKxEQ_v2V-72" value="" style="rounded=0;orthogonalLoop=1;jettySize=auto;html=1;dashed=1;endSize=16;endArrow=open;endFill=0;" edge="1" parent="WIyWlLk6GJQsqaUBKTNV-1" source="OUhb2QEN75pIKxEQ_v2V-71" target="OUhb2QEN75pIKxEQ_v2V-68">
          <mxGeometry relative="1" as="geometry" />
        </mxCell>
        <mxCell id="OUhb2QEN75pIKxEQ_v2V-83" value="&amp;lt;&amp;lt;extends&amp;gt;&amp;gt;" style="edgeLabel;html=1;align=center;verticalAlign=middle;resizable=0;points=[];" vertex="1" connectable="0" parent="OUhb2QEN75pIKxEQ_v2V-72">
          <mxGeometry x="-0.4051" y="-1" relative="1" as="geometry">
            <mxPoint as="offset" />
          </mxGeometry>
        </mxCell>
        <mxCell id="OUhb2QEN75pIKxEQ_v2V-68" value="Send a distress signal" style="ellipse;whiteSpace=wrap;html=1;fillColor=#fff2cc;strokeColor=#d6b656;" vertex="1" parent="WIyWlLk6GJQsqaUBKTNV-1">
          <mxGeometry x="-30" y="1890" width="140" height="70" as="geometry" />
        </mxCell>
        <mxCell id="OUhb2QEN75pIKxEQ_v2V-69" value="Urgent report" style="ellipse;whiteSpace=wrap;html=1;fillColor=#fff2cc;strokeColor=#d6b656;" vertex="1" parent="WIyWlLk6GJQsqaUBKTNV-1">
          <mxGeometry x="240" y="1850" width="140" height="70" as="geometry" />
        </mxCell>
        <mxCell id="OUhb2QEN75pIKxEQ_v2V-71" value="Send a info &lt;br&gt;Emergency" style="ellipse;whiteSpace=wrap;html=1;fillColor=#fff2cc;strokeColor=#d6b656;" vertex="1" parent="WIyWlLk6GJQsqaUBKTNV-1">
          <mxGeometry x="10" y="1700" width="140" height="70" as="geometry" />
        </mxCell>
        <mxCell id="OUhb2QEN75pIKxEQ_v2V-73" value="&amp;lt;&amp;lt;extends&amp;gt;&amp;gt;" style="rounded=0;orthogonalLoop=1;jettySize=auto;html=1;dashed=1;endArrow=open;endFill=0;endSize=16;entryX=1;entryY=0.5;entryDx=0;entryDy=0;" edge="1" parent="WIyWlLk6GJQsqaUBKTNV-1" source="OUhb2QEN75pIKxEQ_v2V-74" target="OUhb2QEN75pIKxEQ_v2V-61">
          <mxGeometry relative="1" as="geometry">
            <mxPoint x="840" y="1326" as="targetPoint" />
          </mxGeometry>
        </mxCell>
        <mxCell id="OUhb2QEN75pIKxEQ_v2V-74" value="Sign up&amp;nbsp;vehicle information" style="ellipse;whiteSpace=wrap;html=1;fillColor=#fff2cc;strokeColor=#d6b656;" vertex="1" parent="WIyWlLk6GJQsqaUBKTNV-1">
          <mxGeometry x="940" y="1150" width="140" height="70" as="geometry" />
        </mxCell>
        <mxCell id="OUhb2QEN75pIKxEQ_v2V-77" value="&amp;lt;&amp;lt;include&amp;gt;&amp;gt;" style="rounded=0;orthogonalLoop=1;jettySize=auto;html=1;dashed=1;endSize=16;endArrow=open;endFill=0;" edge="1" parent="WIyWlLk6GJQsqaUBKTNV-1" source="OUhb2QEN75pIKxEQ_v2V-76" target="OUhb2QEN75pIKxEQ_v2V-75">
          <mxGeometry relative="1" as="geometry" />
        </mxCell>
        <mxCell id="OUhb2QEN75pIKxEQ_v2V-79" value="" style="rounded=0;orthogonalLoop=1;jettySize=auto;html=1;dashed=1;endSize=16;endArrow=open;endFill=0;" edge="1" parent="WIyWlLk6GJQsqaUBKTNV-1" source="OUhb2QEN75pIKxEQ_v2V-78" target="OUhb2QEN75pIKxEQ_v2V-75">
          <mxGeometry relative="1" as="geometry" />
        </mxCell>
        <mxCell id="OUhb2QEN75pIKxEQ_v2V-82" value="&amp;lt;&amp;lt;extends&amp;gt;&amp;gt;" style="edgeLabel;html=1;align=center;verticalAlign=middle;resizable=0;points=[];" vertex="1" connectable="0" parent="OUhb2QEN75pIKxEQ_v2V-79">
          <mxGeometry x="-0.1308" y="-1" relative="1" as="geometry">
            <mxPoint as="offset" />
          </mxGeometry>
        </mxCell>
        <mxCell id="OUhb2QEN75pIKxEQ_v2V-81" value="&amp;lt;&amp;lt;extends&amp;gt;&amp;gt;" style="rounded=0;orthogonalLoop=1;jettySize=auto;html=1;dashed=1;endSize=16;endArrow=open;endFill=0;" edge="1" parent="WIyWlLk6GJQsqaUBKTNV-1" source="OUhb2QEN75pIKxEQ_v2V-80" target="OUhb2QEN75pIKxEQ_v2V-75">
          <mxGeometry relative="1" as="geometry" />
        </mxCell>
        <mxCell id="OUhb2QEN75pIKxEQ_v2V-75" value="Receive distress &lt;br&gt;signal" style="ellipse;whiteSpace=wrap;html=1;fillColor=#fff2cc;strokeColor=#d6b656;" vertex="1" parent="WIyWlLk6GJQsqaUBKTNV-1">
          <mxGeometry x="827" y="1550" width="140" height="70" as="geometry" />
        </mxCell>
        <mxCell id="OUhb2QEN75pIKxEQ_v2V-76" value="Receive Push&lt;br&gt;notification" style="ellipse;whiteSpace=wrap;html=1;fillColor=#fff2cc;strokeColor=#d6b656;" vertex="1" parent="WIyWlLk6GJQsqaUBKTNV-1">
          <mxGeometry x="600" y="1430" width="140" height="70" as="geometry" />
        </mxCell>
        <mxCell id="OUhb2QEN75pIKxEQ_v2V-78" value="Confirm receipt&lt;br&gt;&amp;nbsp;of rescue" style="ellipse;whiteSpace=wrap;html=1;fillColor=#fff2cc;strokeColor=#d6b656;" vertex="1" parent="WIyWlLk6GJQsqaUBKTNV-1">
          <mxGeometry x="530" y="1540" width="140" height="70" as="geometry" />
        </mxCell>
        <mxCell id="OUhb2QEN75pIKxEQ_v2V-80" value="Check the status of the target needing rescue" style="ellipse;whiteSpace=wrap;html=1;fillColor=#fff2cc;strokeColor=#d6b656;" vertex="1" parent="WIyWlLk6GJQsqaUBKTNV-1">
          <mxGeometry x="580" y="1660" width="140" height="70" as="geometry" />
        </mxCell>
        <mxCell id="OUhb2QEN75pIKxEQ_v2V-84" value="" style="rounded=0;orthogonalLoop=1;jettySize=auto;html=1;dashed=1;endSize=16;endArrow=open;endFill=0;entryX=1;entryY=1;entryDx=0;entryDy=0;" edge="1" parent="WIyWlLk6GJQsqaUBKTNV-1" source="OUhb2QEN75pIKxEQ_v2V-86" target="OUhb2QEN75pIKxEQ_v2V-68">
          <mxGeometry relative="1" as="geometry">
            <mxPoint x="217" y="2180" as="targetPoint" />
          </mxGeometry>
        </mxCell>
        <mxCell id="OUhb2QEN75pIKxEQ_v2V-85" value="&amp;lt;&amp;lt;extends&amp;gt;&amp;gt;" style="edgeLabel;html=1;align=center;verticalAlign=middle;resizable=0;points=[];" vertex="1" connectable="0" parent="OUhb2QEN75pIKxEQ_v2V-84">
          <mxGeometry x="-0.4051" y="-1" relative="1" as="geometry">
            <mxPoint as="offset" />
          </mxGeometry>
        </mxCell>
        <mxCell id="OUhb2QEN75pIKxEQ_v2V-86" value="Check rescue service status" style="ellipse;whiteSpace=wrap;html=1;fillColor=#fff2cc;strokeColor=#d6b656;" vertex="1" parent="WIyWlLk6GJQsqaUBKTNV-1">
          <mxGeometry x="180" y="1990" width="140" height="70" as="geometry" />
        </mxCell>
        <mxCell id="OUhb2QEN75pIKxEQ_v2V-87" value="&amp;lt;&amp;lt;extends&amp;gt;&amp;gt;" style="rounded=0;orthogonalLoop=1;jettySize=auto;html=1;dashed=1;endArrow=open;endFill=0;endSize=16;entryX=1;entryY=1;entryDx=0;entryDy=0;" edge="1" parent="WIyWlLk6GJQsqaUBKTNV-1" source="OUhb2QEN75pIKxEQ_v2V-88" target="OUhb2QEN75pIKxEQ_v2V-61">
          <mxGeometry relative="1" as="geometry">
            <mxPoint x="829" y="1466" as="targetPoint" />
          </mxGeometry>
        </mxCell>
        <mxCell id="OUhb2QEN75pIKxEQ_v2V-88" value="Sign up&amp;nbsp;emergency contact" style="ellipse;whiteSpace=wrap;html=1;fillColor=#fff2cc;strokeColor=#d6b656;" vertex="1" parent="WIyWlLk6GJQsqaUBKTNV-1">
          <mxGeometry x="910" y="1300" width="140" height="70" as="geometry" />
        </mxCell>
        <mxCell id="OUhb2QEN75pIKxEQ_v2V-89" value="&amp;lt;&amp;lt;extends&amp;gt;&amp;gt;" style="rounded=0;orthogonalLoop=1;jettySize=auto;html=1;dashed=1;endArrow=open;endFill=0;endSize=16;entryX=0.5;entryY=1;entryDx=0;entryDy=0;" edge="1" parent="WIyWlLk6GJQsqaUBKTNV-1" source="OUhb2QEN75pIKxEQ_v2V-90" target="OUhb2QEN75pIKxEQ_v2V-42">
          <mxGeometry relative="1" as="geometry">
            <mxPoint x="-280" y="1250" as="targetPoint" />
          </mxGeometry>
        </mxCell>
        <mxCell id="OUhb2QEN75pIKxEQ_v2V-90" value="Real-time schedule tracking" style="ellipse;whiteSpace=wrap;html=1;fillColor=#fff2cc;strokeColor=#d6b656;" vertex="1" parent="WIyWlLk6GJQsqaUBKTNV-1">
          <mxGeometry x="-200" y="1290" width="140" height="70" as="geometry" />
        </mxCell>
      </root>
    </mxGraphModel>
  </diagram>
</mxfile>
